<?xml version="1.0" encoding="UTF-8" standalone="no"?>
<svg
   xmlns:dc="http://purl.org/dc/elements/1.1/"
   xmlns:cc="http://creativecommons.org/ns#"
   xmlns:rdf="http://www.w3.org/1999/02/22-rdf-syntax-ns#"
   xmlns:svg="http://www.w3.org/2000/svg"
   xmlns="http://www.w3.org/2000/svg"
   xmlns:sodipodi="http://sodipodi.sourceforge.net/DTD/sodipodi-0.dtd"
   xmlns:inkscape="http://www.inkscape.org/namespaces/inkscape"
   width="167.99275"
   height="168.69893"
   overflow="hidden"
   version="1.1"
   id="svg913"
   sodipodi:docname="lp.svg"
   style="overflow:hidden"
   inkscape:version="0.92.4 (5da689c313, 2019-01-14)">
  <metadata
     id="metadata917">
    <rdf:RDF>
      <cc:Work
         rdf:about="">
        <dc:format>image/svg+xml</dc:format>
        <dc:type
           rdf:resource="http://purl.org/dc/dcmitype/StillImage" />
      </cc:Work>
    </rdf:RDF>
  </metadata>
  <sodipodi:namedview
     pagecolor="#ffffff"
     bordercolor="#666666"
     borderopacity="1"
     objecttolerance="10"
     gridtolerance="10"
     guidetolerance="10"
     inkscape:pageopacity="0"
     inkscape:pageshadow="2"
     inkscape:window-width="1920"
     inkscape:window-height="1017"
     id="namedview915"
     showgrid="false"
     inkscape:zoom="1.0396476"
     inkscape:cx="-40.252119"
     inkscape:cy="93.198936"
     inkscape:window-x="-8"
     inkscape:window-y="-8"
     inkscape:window-maximized="1"
     inkscape:current-layer="svg913" />
  <defs
     id="defs889">
    <clipPath
       id="clip0">
      <rect
         x="0"
         y="0"
         width="227"
         height="227"
         id="rect886" />
    </clipPath>
  </defs>
  <path
     style="fill:#c00000"
     inkscape:connector-curvature="0"
     id="path893"
     d="m 142.979,87.035 14.955,15.411 -0.958,0.929 -14.955,-15.41 z m 16.419,12.13 2.703,8.533 -8.448,-2.957 z" />
  <path
     style="fill:none;fill-rule:evenodd;stroke:#ff0000;stroke-width:3.00219989;stroke-miterlimit:8"
     inkscape:connector-curvature="0"
     id="path895"
     stroke-miterlimit="8"
     d="M 167,67.5 53.499991,167.57299" />
  <path
     style="fill:#262626;fill-rule:evenodd;stroke:#d9d9d9;stroke-width:1.33431005;stroke-miterlimit:8"
     inkscape:connector-curvature="0"
     id="path897"
     stroke-miterlimit="8"
     d="M 29.3397,41.3611 96.647,3.5 129.5,29.2777 117.481,111.444 48.5705,148.5 4.5,138.833 Z" />
  <path
     style="fill:#d9d9d9;fill-rule:evenodd"
     inkscape:connector-curvature="0"
     id="path899"
     d="m 125,29 c 0,-2.2092 1.791,-4 4,-4 2.209,0 4,1.7908 4,4 0,2.2091 -1.791,4 -4,4 -2.209,0 -4,-1.7909 -4,-4 z" />
  <path
     style="fill:#d9d9d9;fill-rule:evenodd"
     inkscape:connector-curvature="0"
     id="path901"
     d="m 113,111 c 0,-2.209 1.791,-4 4,-4 2.209,0 4,1.791 4,4 0,2.209 -1.791,4 -4,4 -2.209,0 -4,-1.791 -4,-4 z" />
  <path
     style="fill:#d9d9d9;fill-rule:evenodd"
     inkscape:connector-curvature="0"
     id="path903"
     d="m 45.0001,147.5 c 0,-2.485 1.7908,-4.5 4,-4.5 2.2091,0 3.9999,2.015 3.9999,4.5 0,2.485 -1.7908,4.5 -3.9999,4.5 -2.2092,0 -4,-2.015 -4,-4.5 z" />
  <path
     style="fill:#d9d9d9;fill-rule:evenodd"
     inkscape:connector-curvature="0"
     id="path905"
     d="m 0,138 c 0,-2.209 1.7908,-4 4,-4 2.2091,0 4,1.791 4,4 0,2.209 -1.7909,4 -4,4 -2.2092,0 -4,-1.791 -4,-4 z" />
  <path
     style="fill:#d9d9d9;fill-rule:evenodd"
     inkscape:connector-curvature="0"
     id="path907"
     d="m 26,41 c 0,-2.2092 1.7908,-4.0001 4,-4.0001 2.2091,0 4,1.7909 4,4.0001 0,2.2092 -1.7909,4 -4,4 -2.2092,0 -4,-1.7908 -4,-4 z" />
  <path
     style="fill:#d9d9d9;fill-rule:evenodd"
     inkscape:connector-curvature="0"
     id="path909"
     d="M 92,4.5 C 92,2.0147 93.791,0 96,0 c 2.209,0 4,2.0147 4,4.5 C 100,6.9852 98.209,9 96,9 93.791,9 92,6.9852 92,4.5 Z" />
</svg>
