<?xml version="1.0" encoding="UTF-8" standalone="no"?>
<svg
   xmlns:dc="http://purl.org/dc/elements/1.1/"
   xmlns:cc="http://creativecommons.org/ns#"
   xmlns:rdf="http://www.w3.org/1999/02/22-rdf-syntax-ns#"
   xmlns:svg="http://www.w3.org/2000/svg"
   xmlns="http://www.w3.org/2000/svg"
   xmlns:sodipodi="http://sodipodi.sourceforge.net/DTD/sodipodi-0.dtd"
   xmlns:inkscape="http://www.inkscape.org/namespaces/inkscape"
   width="233.00026"
   height="162.17975"
   overflow="hidden"
   version="1.1"
   id="svg53"
   sodipodi:docname="planning.svg"
   style="overflow:hidden"
   inkscape:version="0.92.4 (5da689c313, 2019-01-14)">
  <metadata
     id="metadata57">
    <rdf:RDF>
      <cc:Work
         rdf:about="">
        <dc:format>image/svg+xml</dc:format>
        <dc:type
           rdf:resource="http://purl.org/dc/dcmitype/StillImage" />
      </cc:Work>
    </rdf:RDF>
  </metadata>
  <sodipodi:namedview
     pagecolor="#ffffff"
     bordercolor="#666666"
     borderopacity="1"
     objecttolerance="10"
     gridtolerance="10"
     guidetolerance="10"
     inkscape:pageopacity="0"
     inkscape:pageshadow="2"
     inkscape:window-width="1920"
     inkscape:window-height="1017"
     id="namedview55"
     showgrid="false"
     inkscape:zoom="2.2208398"
     inkscape:cx="-6.7908001"
     inkscape:cy="99.260455"
     inkscape:window-x="-8"
     inkscape:window-y="-8"
     inkscape:window-maximized="1"
     inkscape:current-layer="svg53" />
  <defs
     id="defs5">
    <clipPath
       id="clip0">
      <rect
         x="0"
         y="0"
         width="643"
         height="265"
         id="rect2" />
    </clipPath>
  </defs>
  <path
     style="fill:#88b6e0;fill-opacity:0.70588237;fill-rule:evenodd;stroke-width:1.0005548"
     inkscape:connector-curvature="0"
     id="path29"
     d="m 113.96801,3.011917 c -1.387,-0.556103 -48.642498,25.634716 -64.560798,39.035974 -15.9184,13.401159 -23.0733,29.972029 -30.9493,41.371369 -7.876,11.39934 -15.4746598,18.8507 -16.3065698,27.02517 -0.83202,8.17406 11.5366698,14.0686 11.3147698,22.02041 -0.2219,7.95182 -17.3603998,21.18549 -12.64591978,25.68949 4.71446998,4.50499 33.61151978,5.61622 40.93291978,1.33448 7.3213,-4.28075 6.2675,-18.79484 2.995,-27.02397 -3.2724,-8.23012 -20.4664,-14.68027 -22.6295,-22.35478 -2.1631,-7.67331 3.7161,-12.90031 9.6508,-23.68807 5.9348,-10.78766 12.2023,-27.02486 25.9575,-41.037699 C 71.482012,31.371354 115.35501,3.568019 113.96801,3.011917 Z" />
  <path
     style="fill:#aed395;fill-opacity:0.70588237;fill-rule:evenodd;stroke-width:1.0005548"
     inkscape:connector-curvature="0"
     id="path31"
     d="m 113.94481,2.007773 c -1.948,-0.445529 -57.996008,26.065534 -64.118388,40.434966 -6.12238,14.369431 23.65479,33.083081 27.38389,45.781661 3.7291,12.69858 -4.2857,23.33638 -5.0092,30.41022 -0.7236,7.07284 2.7272,5.51311 0.6679,12.02934 -2.0594,6.51722 -17.69939,22.55701 -13.0241,27.06801 4.6753,4.512 34.0073,4.67919 41.075898,0 7.0686,-4.67819 2.7272,-21.88827 1.3358,-28.07013 -1.3915,-6.18185 -9.517598,-4.78931 -9.684598,-9.023 -0.167,-4.23269 9.573298,-9.85793 8.682698,-16.37415 -0.8905,-6.51633 -7.402498,-12.86557 -14.025898,-22.7237 -6.6233,-9.85813 -29.88846,-23.33647 -25.7141,-36.424887 4.1743,-13.088412 54.378198,-42.662801 52.430098,-43.10833 z" />
  <path
     style="fill:#ffda69;fill-opacity:0.70588237;fill-rule:evenodd;stroke-width:1.0005548"
     inkscape:connector-curvature="0"
     id="path33"
     d="m 114.05332,3.003406 c -1.93602,0.05583 49.50639,31.329331 52.76999,41.548962 3.2636,10.219632 -28.9847,35.852752 -33.1887,51.936282 -4.2039,16.08314 8.3525,34.23326 7.9653,44.56472 -0.3872,10.33145 -15.1008,15.13378 -10.2885,17.42331 4.8124,2.28954 36.6182,6.14282 39.1627,-3.68508 2.5445,-9.8289 -25.5553,-36.18813 -23.8959,-55.2873 1.6594,-19.09918 37.2819,-39.20347 31.8611,-55.287003 C 173.01861,28.133864 115.98934,2.947578 114.05332,3.003406 Z" />
  <path
     style="fill:#f3a875;fill-opacity:0.70588237;fill-rule:evenodd;stroke-width:1.0005548"
     inkscape:connector-curvature="0"
     id="path35"
     d="m 113.08921,2.006181 c 2.34048,-0.388517 52.661,27.919079 69.5458,41.62878 16.8849,13.709699 24.8537,30.971739 31.764,40.629649 6.91,9.65791 9.027,10.54599 9.696,17.3176 0.669,6.77201 -6.743,16.5959 -5.684,23.31235 1.059,6.71545 10.309,11.48874 12.037,16.98383 1.727,5.49509 5.517,13.59908 -1.672,15.98572 -7.189,2.38665 -35.6087,1.33248 -41.46,-1.66484 -5.8511,-2.99732 5.8512,-10.54569 6.3528,-16.3191 0.5015,-5.7724 -4.2909,-11.93323 -3.3436,-18.3163 0.9474,-6.38308 8.1918,-14.37594 9.0276,-19.98166 0.8359,-5.60601 1.1145,-4.38496 -4.0123,-13.65424 -5.1267,-9.26938 -13.2627,-27.86359 -26.7484,-41.961824 C 155.10651,31.867914 110.74872,2.394699 113.08921,2.006181 Z" />
  <path
     style="fill:none;fill-rule:evenodd;stroke:#4472c4;stroke-width:0.66755521;stroke-miterlimit:8"
     inkscape:connector-curvature="0"
     id="path9"
     stroke-miterlimit="8"
     d="M 113.91401,3.5039 53.500212,45.084498" />
  <path
     style="fill:none;fill-rule:evenodd;stroke:#ff6600;stroke-width:0.66755521;stroke-miterlimit:8"
     inkscape:connector-curvature="0"
     id="path11"
     stroke-miterlimit="8"
     d="m 114.50001,3.5039 60.4138,41.580603" />
  <path
     style="fill:none;fill-rule:evenodd;stroke:#4472c4;stroke-width:0.66755521;stroke-miterlimit:8"
     inkscape:connector-curvature="0"
     id="path13"
     stroke-miterlimit="8"
     d="m 54.029012,44.5495 -28.5287,41.5806" />
  <path
     style="fill:none;fill-rule:evenodd;stroke:#008000;stroke-width:0.66755521;stroke-miterlimit:8"
     inkscape:connector-curvature="0"
     id="path15"
     stroke-miterlimit="8"
     d="m 53.500012,44.5495 28.5287,41.5806" />
  <path
     style="fill:none;fill-rule:evenodd;stroke:#d4aa00;stroke-width:0.66755521;stroke-miterlimit:8"
     inkscape:connector-curvature="0"
     id="path17"
     stroke-miterlimit="8"
     d="m 175.02901,44.5495 -28.5287,41.5806" />
  <path
     style="fill:none;fill-rule:evenodd;stroke:#ff6600;stroke-width:0.66755521;stroke-miterlimit:8"
     inkscape:connector-curvature="0"
     id="path19"
     stroke-miterlimit="8"
     d="m 174.50001,44.5495 28.5287,41.5806" />
  <path
     style="fill:none;fill-rule:evenodd;stroke:#4472c4;stroke-width:0.66755521;stroke-miterlimit:8"
     inkscape:connector-curvature="0"
     id="path21"
     stroke-miterlimit="8"
     d="m 25.791212,85.5947 c -7.06655,8.53712 -14.13298,17.07423 -13.20967,24.97629 0.9232,7.90206 17.47087,14.25201 18.74917,22.43628 1.2784,8.18427 -4.9004,17.42692 -11.07905,26.66957" />
  <path
     style="fill:none;fill-rule:evenodd;stroke:#008000;stroke-width:0.66755521;stroke-miterlimit:8"
     inkscape:connector-curvature="0"
     id="path23"
     stroke-miterlimit="8"
     d="m 81.656242,84.5937 c 6.00527,8.30822 9.59867,15.0607 9.83887,21.18969 0.2403,6.129 -8.0973,11.25538 -8.39728,15.58448 -0.29982,4.329 7.69738,4.17143 6.59778,10.38952 -1.0995,6.218 -7.14756,16.56817 -13.1956,26.91845" />
  <path
     style="fill:none;fill-rule:evenodd;stroke:#d4aa00;stroke-width:0.66755521;stroke-miterlimit:8"
     inkscape:connector-curvature="0"
     id="path25"
     stroke-miterlimit="8"
     d="m 146.96074,85.5947 c -3.4837,6.13158 -8.95398,7.09879 -7.07993,16.58889 1.87404,9.49013 16.7281,30.9361 18.3245,40.35144 1.5964,9.41534 -3.5747,12.77797 -8.74577,16.1407" />
  <path
     style="fill:none;fill-rule:evenodd;stroke:#ff6600;stroke-width:0.66755521;stroke-miterlimit:8"
     inkscape:connector-curvature="0"
     id="path27"
     stroke-miterlimit="8"
     d="m 202.89761,85.5947 c 3.65436,5.68564 9.2042,10.38081 9.13804,16.60932 -0.0662,6.2284 -9.60151,14.18713 -9.53534,20.76162 0.0662,6.57459 9.33663,12.73391 9.93264,18.68551 0.59606,5.9517 -2.88044,11.48814 -6.35689,17.02458" />
  <path
     style="fill:#1a1a1a;fill-rule:evenodd;stroke-width:0.601;stroke:#ffffff;stroke-miterlimit:4;stroke-dasharray:none"
     inkscape:connector-curvature="0"
     id="path37"
     d="m 111.00001,2.502775 c 0,-1.382243 1.11929,-2.502775 2.5,-2.502775 1.38071,0 2.5,1.120532 2.5,2.502775 0,1.382243 -1.11929,2.502775 -2.5,2.502775 -1.38071,0 -2.5,-1.120532 -2.5,-2.502775 z" />
  <path
     style="fill:#1a1a1a;fill-rule:evenodd;stroke-width:0.601;stroke:#ffffff;stroke-miterlimit:4;stroke-dasharray:none"
     inkscape:connector-curvature="0"
     id="path39"
     d="m 51.000012,44.549475 c 0,-1.382243 1.11929,-2.502775 2.5,-2.502775 1.38071,0 2.5,1.120532 2.5,2.502775 0,1.382243 -1.11929,2.502775 -2.5,2.502775 -1.38071,0 -2.5,-1.120532 -2.5,-2.502775 z" />
  <path
     style="fill:#1a1a1a;fill-rule:evenodd;stroke-width:0.601;stroke:#ffffff;stroke-miterlimit:4;stroke-dasharray:none"
     inkscape:connector-curvature="0"
     id="path41"
     d="m 172.00001,44.549475 c 0,-1.382243 1.11929,-2.502775 2.5,-2.502775 1.38071,0 2.5,1.120532 2.5,2.502775 0,1.382243 -1.11929,2.502775 -2.5,2.502775 -1.38071,0 -2.5,-1.120532 -2.5,-2.502775 z" />
  <path
     style="fill:#1a1a1a;fill-rule:evenodd;stroke-width:0.601;stroke:#ffffff;stroke-miterlimit:4;stroke-dasharray:none"
     inkscape:connector-curvature="0"
     id="path43"
     d="m 200.00001,85.59547 c 0,-1.38224 1.11929,-2.50277 2.5,-2.50277 1.38071,0 2.5,1.12053 2.5,2.50277 0,1.38225 -1.11929,2.50278 -2.5,2.50278 -1.38071,0 -2.5,-1.12053 -2.5,-2.50278 z" />
  <path
     style="fill:#1a1a1a;fill-rule:evenodd;stroke-width:0.601;stroke:#ffffff;stroke-miterlimit:4;stroke-dasharray:none"
     inkscape:connector-curvature="0"
     id="path45"
     d="m 143.00001,85.59547 c 0,-1.38224 1.11929,-2.50277 2.5,-2.50277 1.38071,0 2.5,1.12053 2.5,2.50277 0,1.38225 -1.11929,2.50278 -2.5,2.50278 -1.38071,0 -2.5,-1.12053 -2.5,-2.50278 z" />
  <path
     style="fill:#1a1a1a;fill-rule:evenodd;stroke-width:0.601;stroke:#ffffff;stroke-miterlimit:4;stroke-dasharray:none"
     inkscape:connector-curvature="0"
     id="path47"
     d="m 79.000012,85.59547 c 0,-1.38224 1.11929,-2.50277 2.5,-2.50277 1.38071,0 2.5,1.12053 2.5,2.50277 0,1.38225 -1.11929,2.50278 -2.5,2.50278 -1.38071,0 -2.5,-1.12053 -2.5,-2.50278 z" />
  <path
     style="fill:#1a1a1a;fill-rule:evenodd;stroke-width:0.601;stroke:#ffffff;stroke-miterlimit:4;stroke-dasharray:none"
     inkscape:connector-curvature="0"
     id="path49"
     d="m 22.000012,85.59547 c 0,-1.38224 1.11929,-2.50277 2.5,-2.50277 1.38071,0 2.5,1.12053 2.5,2.50277 0,1.38225 -1.11929,2.50278 -2.5,2.50278 -1.38071,0 -2.5,-1.12053 -2.5,-2.50278 z" />
</svg>
