<?xml version="1.0" encoding="UTF-8" standalone="no"?>
<svg
   xmlns:dc="http://purl.org/dc/elements/1.1/"
   xmlns:cc="http://creativecommons.org/ns#"
   xmlns:rdf="http://www.w3.org/1999/02/22-rdf-syntax-ns#"
   xmlns:svg="http://www.w3.org/2000/svg"
   xmlns="http://www.w3.org/2000/svg"
   xmlns:sodipodi="http://sodipodi.sourceforge.net/DTD/sodipodi-0.dtd"
   xmlns:inkscape="http://www.inkscape.org/namespaces/inkscape"
   width="643"
   height="265"
   overflow="hidden"
   version="1.1"
   id="svg41"
   sodipodi:docname="planning.svg"
   inkscape:version="0.92.4 (5da689c313, 2019-01-14)">
  <metadata
     id="metadata45">
    <rdf:RDF>
      <cc:Work
         rdf:about="">
        <dc:format>image/svg+xml</dc:format>
        <dc:type
           rdf:resource="http://purl.org/dc/dcmitype/StillImage" />
      </cc:Work>
    </rdf:RDF>
  </metadata>
  <sodipodi:namedview
     pagecolor="#ffffff"
     bordercolor="#666666"
     borderopacity="1"
     objecttolerance="10"
     gridtolerance="10"
     guidetolerance="10"
     inkscape:pageopacity="0"
     inkscape:pageshadow="2"
     inkscape:window-width="1920"
     inkscape:window-height="1017"
     id="namedview43"
     showgrid="false"
     inkscape:zoom="0.55520995"
     inkscape:cx="97.260504"
     inkscape:cy="132.5"
     inkscape:window-x="-8"
     inkscape:window-y="-8"
     inkscape:window-maximized="1"
     inkscape:current-layer="svg41" />
  <defs
     id="defs5">
    <clipPath
       id="clip0">
      <rect
         x="0"
         y="0"
         width="643"
         height="265"
         id="rect2" />
    </clipPath>
  </defs>
  <path
     style="fill:#1f77b4;fill-opacity:0;fill-rule:evenodd;stroke-width:1.0005548"
     inkscape:connector-curvature="0"
     id="path9"
     d="M 70.000782,86.83544 C 69.71161,85.585955 158.9617,59.143727 206.078,56.562114 c 47.117,-2.58162 107.869,9.820949 146.621,14.783752 38.752,4.962803 59.719,17.203675 85.891,14.993124 26.172,-2.210551 48.729,-25.276916 71.141,-28.25632 22.413,-2.979413 45.837,10.860432 63.334,10.379899 17.496,-0.480633 32.679,-19.125856 41.644,-13.263176 8.965,5.862681 21.111,40.27002 12.146,48.439377 -8.965,8.16926 -47.862,3.17162 -65.936,0.57664 C 542.844,101.62053 537.638,88.645648 518.407,88.068908 499.176,87.492269 474.161,101.81265 445.53,100.75547 416.9,99.698202 386.246,88.165115 346.626,81.725775 307.007,75.286335 253.917,63.207252 207.813,64.058896 161.7091,64.910531 70.289954,88.084926 70.000782,86.83544 Z" />
  <rect
     style="fill:#00b0f0;stroke:#145683;stroke-width:1.33511043;stroke-miterlimit:8"
     id="rect11"
     stroke-miterlimit="8"
     height="30.0333"
     width="57"
     y="76.584999"
     x="7.50001" />
  <path
     style="fill:#1f77b4;stroke-width:1.0005548"
     inkscape:connector-curvature="0"
     id="path13"
     d="M 68.715229,85.963883 204.718,132.36685 204.287,133.63125 68.284771,87.228317 Z M 204.531,128.77477 l 6.287,6.37897 -8.87,1.20764 z" />
  <path
     style="fill:#1f77b4;stroke-width:1.0005548"
     inkscape:connector-curvature="0"
     id="path15"
     d="M 68.632843,87.166353 204.412,59.548504 204.146,58.239352 68.367157,85.857247 Z M 203.769,63.087228 l 7.049,-5.523224 -8.643,-2.331486 z" />
  <path
     style="fill:#1f77b4;stroke-width:1.0005548"
     inkscape:connector-curvature="0"
     id="path17"
     d="M 209.58209,59.904349 339.886,76.077297 339.722,77.402967 209.41791,61.230051 Z M 338.972,72.59874 l 7.453,4.963203 -8.438,2.991017 z" />
  <path
     style="fill:#ff7f0e;stroke-width:1.0005548"
     inkscape:connector-curvature="0"
     id="path19"
     d="M 210.59127,59.162146 341.093,41.119328 340.91,39.796061 210.40873,57.838854 Z M 340.227,44.610299 l 7.384,-5.066418 -8.479,-2.873285 z" />
  <path
     style="fill:#9476bd;stroke-width:1.0005548"
     inkscape:connector-curvature="0"
     id="path21"
     d="m 209.59466,132.98683 132.24234,18.97578 -0.19,1.32236 -132.24166,-18.9758 z m 131.39434,15.4804 7.357,5.10426 -8.493,2.82974 z" />
  <path
     style="fill:#2ca02c;stroke-width:1.0005548"
     inkscape:connector-curvature="0"
     id="path23"
     d="M 209.58448,134.03355 341.813,117.1369 l -0.169,-1.32507 -132.22848,16.89662 z m 131.32652,-13.41469 7.435,-4.99023 -8.448,-2.96038 z" />
  <path
     style="fill:none;fill-rule:evenodd;stroke:#1f77b4;stroke-width:1.33511043;stroke-miterlimit:8"
     inkscape:connector-curvature="0"
     id="path25"
     stroke-miterlimit="8"
     d="m 345.5,79.049503 c 32.8592,6.617287 65.7184,13.234524 93.1481,12.495504 27.4299,-0.738919 50.0329,-16.190385 71.4299,-16.92938 21.396,-0.738995 40.38,11.219049 56.95,12.495464 16.571,1.276415 29.521,-1.780274 42.472,-4.836953" />
  <path
     style="fill:none;fill-rule:evenodd;stroke:#ff7f0e;stroke-width:1.33511043;stroke-miterlimit:8"
     inkscape:connector-curvature="0"
     id="path27"
     stroke-miterlimit="8"
     d="m 346.5,39.692535 c 30.0959,-5.334615 60.1918,-10.66901 80.9632,-11.818014 20.7718,-1.149004 32.1428,5.74478 43.6658,4.92417 11.523,-0.82064 13.948,-12.638723 25.471,-9.848329 11.523,2.790394 30.02,25.933964 43.666,26.590492 13.645,0.656528 25.168,-21.666333 38.207,-22.651205 13.039,-0.984872 26.533,7.878626 40.027,16.742154" />
  <path
     style="fill:#ff7f0e;fill-opacity:0;fill-rule:evenodd;stroke-width:1.0005548"
     inkscape:connector-curvature="0"
     id="path29"
     d="M 70,86.911465 C 70,84.774696 150.2492,65.543473 209.524,53.380286 268.799,41.2171 382.79,19.191479 425.65,13.931747 c 42.861,-5.2597818 30.55,9.368988 41.037,7.889748 10.487,-1.47934 10.487,-17.0943237 21.886,-16.7656092 11.399,0.3287145 32.829,19.3954252 46.508,18.7379962 13.679,-0.657429 20.975,-20.546151 35.565,-22.6829102 14.591,-2.1367592 43.469,-2.3012215 51.98,9.8620952 8.511,12.163286 5.928,55.556599 -0.912,63.117582 -6.839,7.560984 -26.294,-17.423118 -40.125,-17.751782 -13.83,-0.328765 -28.573,17.258736 -42.86,15.779396 -14.287,-1.479341 -31.309,-20.710464 -42.861,-24.655237 -11.551,-3.944874 -26.445,0.986193 -26.445,0.986193 L 209.524,66.201102 C 143.1058,72.118363 70,89.048234 70,86.911465 Z" />
  <path
     style="fill:none;fill-rule:evenodd;stroke:#2ca02c;stroke-width:1.33511043;stroke-miterlimit:8"
     inkscape:connector-curvature="0"
     id="path31"
     stroke-miterlimit="8"
     d="m 347.5,115.30187 c 29.8238,-7.68665 59.6478,-15.373207 85.6013,-11.77523 25.9537,3.59797 50.8447,30.09234 70.1207,33.36326 19.275,3.27093 27.319,-15.7004 45.532,-13.73783 18.213,1.96248 40.98,13.73773 63.746,25.51309" />
  <path
     style="fill:none;fill-rule:evenodd;stroke:#9476bd;stroke-width:1.33511043;stroke-miterlimit:8"
     inkscape:connector-curvature="0"
     id="path33"
     stroke-miterlimit="8"
     d="m 347.5,154.71484 c 30.2689,9.16079 60.5379,18.32164 85.5723,17.98857 25.0347,-0.33307 34.8967,-21.15324 64.6347,-19.98728 29.738,1.16596 71.765,14.07443 113.793,26.98284" />
  <path
     style="fill:#2ca02c;fill-opacity:0;fill-rule:evenodd;stroke-width:1.0005548"
     inkscape:connector-curvature="0"
     id="path35"
     d="M 71.003028,86.242372 C 70.395469,83.438864 160.1682,121.69948 204.979,124.83285 c 44.81,3.13347 97.519,-13.68808 134.887,-19.79004 37.367,-6.101968 62.582,-18.800438 89.317,-16.821463 26.734,1.978974 52.557,26.056803 71.089,28.695523 18.532,2.63873 20.962,-12.69858 40.101,-12.86346 19.14,-0.16498 62.279,-1.64923 74.735,11.87387 12.456,13.52319 11.241,62.33852 0,69.265 -11.24,6.92688 -49.671,-23.74804 -67.443,-27.70592 -17.773,-3.95799 -18.988,10.5546 -39.191,3.95788 -20.202,-6.59661 -32.05,-40.23951 -82.025,-43.53787 C 376.474,114.60811 267.865,146.93165 208.624,141.6543 149.3833,136.37705 71.610587,89.045871 71.003028,86.242372 Z" />
  <path
     style="fill:#9476bd;fill-opacity:0;fill-rule:evenodd;stroke-width:1.0005548"
     inkscape:connector-curvature="0"
     id="path37"
     d="m 69,88.21574 c 0,2.292573 91.5695,40.61192 136.898,53.05762 45.328,12.4456 95.22,14.08311 135.072,21.61597 39.853,7.53295 78.793,22.27119 104.043,23.58124 25.25,1.31006 19.774,-20.30601 47.458,-15.72083 27.683,4.58529 99.479,47.16199 118.644,43.23264 19.166,-3.93036 16.124,-52.89425 -3.65,-66.81368 -19.774,-13.91954 -86.398,-18.34104 -114.994,-16.70342 -28.597,1.63761 -31.943,24.23627 -56.585,26.52891 -24.641,2.29254 -91.265,-12.77316 -91.265,-12.77316 C 306.29,139.30828 251.226,137.3431 205.898,127.51761 160.5695,117.69211 69,85.923169 69,88.21574 Z" />
</svg>
